<svg xmlns="http://www.w3.org/2000/svg" width="38" height="38" fill="none" viewBox="0 0 38 38"><path stroke="#020E28" stroke-linecap="round" stroke-linejoin="round" stroke-miterlimit="10" d="M9.88875 25.3463C4.56 24.46 0.5 19.8325 0.5 14.25C0.5 11.6825 1.36 9.31752 2.80625 7.42377"/><path stroke="#020E28" stroke-linecap="round" stroke-linejoin="round" stroke-miterlimit="10" d="M18.6963 5.39874C21.3163 7.45749 23 10.6575 23 14.25C23 15.5512 22.78 16.7987 22.375 17.96"/><path stroke="#020E28" stroke-linecap="round" stroke-linejoin="round" stroke-miterlimit="10" d="M4.84375 5.36875C6.75 3.88375 9.14625 3 11.75 3C13.3613 3 14.8938 3.3375 16.2788 3.94875"/><path stroke="#020E28" stroke-linecap="round" stroke-linejoin="round" stroke-miterlimit="10" d="M18.7676 5.29628L19.8701 3.78003"/><path stroke="#020E28" stroke-linecap="round" stroke-linejoin="round" stroke-miterlimit="10" d="M3.62988 3.77875L4.73238 5.29625"/><path stroke="#020E28" stroke-linecap="round" stroke-linejoin="round" stroke-miterlimit="10" d="M11.75 0.5V3"/><path stroke="#020E28" stroke-linecap="round" stroke-linejoin="round" stroke-miterlimit="10" d="M10.5 0.5H13"/><path stroke="#020E28" stroke-linecap="round" stroke-miterlimit="10" d="M16.0625 6.77999L16.125 6.67249"/><path stroke="#020E28" stroke-linecap="round" stroke-miterlimit="10" d="M7.4375 21.72L7.375 21.8275"/><path stroke="#020E28" stroke-linecap="round" stroke-miterlimit="10" d="M19.2202 9.9375L19.3277 9.875"/><path stroke="#020E28" stroke-linecap="round" stroke-miterlimit="10" d="M4.27986 18.5625L4.17236 18.625"/><path stroke="#020E28" stroke-linecap="round" stroke-miterlimit="10" d="M20.375 14.25H20.5"/><path stroke="#020E28" stroke-linecap="round" stroke-miterlimit="10" d="M3.125 14.25H3"/><path stroke="#020E28" stroke-linecap="round" stroke-miterlimit="10" d="M19.2202 18.5625L19.3277 18.625"/><path stroke="#020E28" stroke-linecap="round" stroke-miterlimit="10" d="M4.27986 9.9375L4.17236 9.875"/><path stroke="#020E28" stroke-linecap="round" stroke-miterlimit="10" d="M7.4375 6.77999L7.375 6.67249"/><path stroke="#020E28" stroke-linecap="round" stroke-miterlimit="10" d="M11.75 5.625V5.5"/><path stroke="#020E28" stroke-linecap="round" stroke-miterlimit="10" d="M11.75 13V8"/><path stroke="#020E28" stroke-miterlimit="10" d="M11.75 15.5C12.4404 15.5 13 14.9404 13 14.25C13 13.5596 12.4404 13 11.75 13C11.0596 13 10.5 13.5596 10.5 14.25C10.5 14.9404 11.0596 15.5 11.75 15.5Z"/><path stroke="#020E28" stroke-linecap="round" stroke-linejoin="round" stroke-miterlimit="10" d="M13 34.25H11.375L12.9088 22.9988"/><path stroke="#020E28" stroke-linecap="round" stroke-linejoin="round" stroke-miterlimit="10" d="M4.25 36.75H16.75"/><path stroke="#020E28" stroke-linecap="round" stroke-linejoin="round" stroke-miterlimit="10" d="M0.5 34.25H8.625"/><path stroke="#020E28" stroke-linecap="round" stroke-linejoin="round" stroke-miterlimit="10" d="M10.5 20.5H28.875L27 34.25H19.22"/><path stroke="#020E28" stroke-linecap="round" stroke-linejoin="round" stroke-miterlimit="10" d="M33.6 34.25H36.25L37.1125 29.9625C37.3125 28.95 36.5375 28 35.5 28L35.1 24C34.975 22.725 33.9 21.75 32.6125 21.75H28.75"/><path stroke="#020E28" stroke-miterlimit="10" d="M33.1875 33.4375C33.85 34.1 33.75 35.275 32.95 36.075C32.15 36.875 30.975 36.975 30.3125 36.3125C29.65 35.65 29.75 34.475 30.55 33.675C31.35 32.875 32.525 32.775 33.1875 33.4375Z"/><path stroke="#020E28" stroke-linecap="round" stroke-linejoin="round" stroke-miterlimit="10" d="M34.875 30.5H36.75"/><path stroke="#020E28" stroke-linecap="round" stroke-linejoin="round" stroke-miterlimit="10" d="M31.9763 28H35.5L35.125 24.25H32.1838C31.5725 24.25 31.0513 24.6925 30.9513 25.2937L30.7425 26.5437C30.615 27.3062 31.2038 28 31.9763 28Z"/><path stroke="#020E28" stroke-linecap="round" stroke-linejoin="round" stroke-miterlimit="10" stroke-width="1" d="M18.5702 36.0749C19.3659 35.2792 19.4731 34.0964 18.8097 33.433C18.1463 32.7696 16.9635 32.8768 16.1678 33.6725C15.3721 34.4682 15.2648 35.651 15.9282 36.3144C16.5917 36.9778 17.7745 36.8706 18.5702 36.0749Z"/><path stroke="#020E28" stroke-linecap="round" stroke-linejoin="round" stroke-miterlimit="10" d="M29.25 0.5H16.75"/><path stroke="#020E28" stroke-linecap="round" stroke-linejoin="round" stroke-miterlimit="10" d="M33 3H24.25"/></svg>