<svg xmlns="http://www.w3.org/2000/svg" width="12" height="16" fill="none" viewBox="0 0 12 16"><path fill="#fd5523" d="M8.5 6q-.03 1.062-.719 1.781Q7.062 8.47 6 8.5q-1.062-.03-1.781-.719Q3.53 7.062 3.5 6q.03-1.062.719-1.781Q4.938 3.53 6 3.5q1.062.03 1.781.719Q8.47 4.938 8.5 6M6 7.5a1.63 1.63 0 0 0 1.063-.437A1.63 1.63 0 0 0 7.5 6a1.63 1.63 0 0 0-.437-1.062A1.63 1.63 0 0 0 6 4.5a1.63 1.63 0 0 0-1.062.438A1.63 1.63 0 0 0 4.5 6q.03.624.438 1.063.436.405 1.062.437M12 6q-.063 1.406-1 3.25a31 31 0 0 1-2.187 3.563q-1.219 1.75-2.063 2.78-.312.375-.75.376-.438 0-.75-.375a56 56 0 0 1-2.094-2.781A28.4 28.4 0 0 1 1 9.25Q.063 7.406 0 6q.063-2.562 1.75-4.25Q3.438.063 6 0q2.562.063 4.25 1.75Q11.937 3.438 12 6M6 1q-2.125.063-3.531 1.469Q1.063 3.874 1 6q0 .75.531 1.969a21 21 0 0 0 1.344 2.593A33 33 0 0 0 4.531 13 56 56 0 0 0 6 14.938 56 56 0 0 0 7.469 13a33 33 0 0 0 1.656-2.437q.813-1.344 1.344-2.594Q11 6.749 11 6q-.062-2.125-1.469-3.531Q8.126 1.063 6 1"/></svg>