<svg xmlns="http://www.w3.org/2000/svg" width="16" height="16" fill="none" viewBox="0 0 16 12">
                                    <path fill="#fd5523" d="M0 2Q.03 1.157.594.594 1.157.032 2 0h12q.844.03 1.406.594Q15.97 1.157 16 2v8q-.03.844-.594 1.406-.563.563-1.406.594H2q-.843-.03-1.406-.594Q.032 10.843 0 10zm1 0v1.25l6.125 4.469q.875.594 1.75 0L15 3.25V2a.97.97 0 0 0-.281-.719A.97.97 0 0 0 14 1H1.969q-.406 0-.688.281A1.1 1.1 0 0 0 .97 2zm0 2.5V10q0 .438.281.719A.97.97 0 0 0 2 11h12a.97.97 0 0 0 .719-.281A.97.97 0 0 0 15 10V4.5L9.469 8.531q-.656.5-1.469.5a2.36 2.36 0 0 1-1.469-.5z"></path>
                                </svg>