<svg xmlns="http://www.w3.org/2000/svg" width="17" height="17" fill="none" viewBox="0 0 17 17"><path fill="#fd5523" d="M15.156 10.406q.47.22.688.656.219.438.125.938l-.688 2.969a1.35 1.35 0 0 1-.5.781q-.374.313-.875.313-3.874-.032-7-1.907a13.7 13.7 0 0 1-5-5Q.031 6.032 0 2.156q0-.5.313-.875a1.35 1.35 0 0 1 .78-.5l2.97-.687Q4.563 0 5 .219t.656.687l1.375 3.188q.345.969-.406 1.656l-1.25 1.031a9.54 9.54 0 0 0 3.906 3.907l1.031-1.25q.688-.75 1.657-.407zm-.844 4.344L15 11.781a.45.45 0 0 0-.25-.469l-3.187-1.374q-.281-.094-.47.124l-1.312 1.594q-.249.282-.594.125A10.3 10.3 0 0 1 6.345 9.72 10.3 10.3 0 0 1 4.28 6.875q-.156-.344.125-.594L6 4.97q.22-.188.125-.469L4.75 1.313q-.125-.25-.375-.25h-.094l-2.968.687q-.282.094-.313.406.03 3.594 1.75 6.5a13.46 13.46 0 0 0 4.656 4.656q2.906 1.72 6.5 1.75.313-.03.406-.312"/></svg>